<?xml version="1.0" encoding="UTF-8" standalone="no"?>
<!-- Created with Inkscape (http://www.inkscape.org/) -->

<svg
   xmlns:dc="http://purl.org/dc/elements/1.1/"
   xmlns:cc="http://creativecommons.org/ns#"
   xmlns:rdf="http://www.w3.org/1999/02/22-rdf-syntax-ns#"
   xmlns:svg="http://www.w3.org/2000/svg"
   xmlns="http://www.w3.org/2000/svg"
   xmlns:sodipodi="http://sodipodi.sourceforge.net/DTD/sodipodi-0.dtd"
   xmlns:inkscape="http://www.inkscape.org/namespaces/inkscape"
   width="66.145874mm"
   height="35.983322mm"
   viewBox="0 0 66.145874 35.983322"
   version="1.1"
   id="svg6528"
   inkscape:version="0.92.1 r15371"
   sodipodi:docname="horizontal logo master.svg">
  <defs
     id="defs6522" />
  <sodipodi:namedview
     id="base"
     pagecolor="#ffffff"
     bordercolor="#666666"
     borderopacity="1.0"
     inkscape:pageopacity="0.0"
     inkscape:pageshadow="2"
     inkscape:zoom="1.979899"
     inkscape:cx="64.762639"
     inkscape:cy="40.889646"
     inkscape:document-units="mm"
     inkscape:current-layer="layer1"
     showgrid="false"
     inkscape:window-width="1920"
     inkscape:window-height="1001"
     inkscape:window-x="-9"
     inkscape:window-y="-9"
     inkscape:window-maximized="1"
     inkscape:pagecheckerboard="false"
     fit-margin-top="0"
     fit-margin-left="0"
     fit-margin-right="0"
     fit-margin-bottom="0" />
  <metadata
     id="metadata6525">
    <rdf:RDF>
      <cc:Work
         rdf:about="">
        <dc:format>image/svg+xml</dc:format>
        <dc:type
           rdf:resource="http://purl.org/dc/dcmitype/StillImage" />
        <dc:title></dc:title>
      </cc:Work>
    </rdf:RDF>
  </metadata>
  <g
     inkscape:label="Layer 1"
     inkscape:groupmode="layer"
     id="layer1"
     transform="translate(-44.250407,-95.565274)">
    <path
       style="fill:#0a3a7a;fill-opacity:0.99559476;stroke-width:0.18836774"
       d="m 63.925196,108.29259 a 9.0994663,9.3120397 0 0 0 -9.093147,9.11976 h 2.512316 a 6.6841853,6.8403348 0 0 1 6.674663,-6.64777 6.6841853,6.8403348 0 0 1 3.913935,1.30968 2.7297108,2.7934799 0 0 1 -0.0131,-0.24899 2.7297108,2.7934799 0 0 1 0.889204,-2.05924 9.0994663,9.3120397 0 0 0 -4.883871,-1.47344 z"
       id="path4691-3-6-9"
       inkscape:connector-curvature="0"
       inkscape:export-xdpi="96"
       inkscape:export-ydpi="96" />
    <path
       style="fill:#0a3a7a;fill-opacity:0.99559476;stroke-width:0.18052895"
       d="m 76.574369,102.33298 a 10.785124,11.133321 0 0 0 -10.51691,8.74236 3.6991472,3.7855631 0 0 1 1.944599,1.07521 c 0.02725,-0.0175 0.04968,-0.0332 0.08073,-0.0521 a 8.6279638,8.8295227 0 0 1 8.491576,-7.31733 8.6279638,8.8295227 0 0 1 5.901453,2.4076 9.3078284,9.5252691 0 0 1 0.949944,-2.2911 10.785124,11.133321 0 0 0 -6.851397,-2.56464 z"
       id="path4695-0-5-8"
       inkscape:connector-curvature="0"
       inkscape:export-xdpi="96"
       inkscape:export-ydpi="96" />
    <path
       id="path4699-5-7-0"
       style="fill:#0a3a7a;fill-opacity:0.99607843;stroke-width:0.18836774"
       d="m 91.336191,97.585534 a 11.83407,12.110527 0 0 0 -11.121374,8.026286 8.735323,8.9393905 0 0 1 2.263191,1.54118 9.332209,9.5502193 0 0 1 8.956021,-6.94216 9.332209,9.5502193 0 0 1 9.332171,9.54999 9.332209,9.5502193 0 0 1 -0.19458,1.87835 5.3456683,5.4705488 0 0 1 1.94246,-0.37439 5.3456683,5.4705488 0 0 1 0.53534,0.0278 11.83407,12.110527 0 0 0 0.12111,-1.59661 11.83407,12.110527 0 0 0 -11.834339,-12.110549 z"
       inkscape:connector-curvature="0"
       inkscape:export-xdpi="96"
       inkscape:export-ydpi="96" />
    <path
       style="fill:#0a3a7a;fill-opacity:0.99607843;stroke-width:0.18836774"
       d="m 102.61445,109.10728 a 7.7817172,7.9635064 0 0 0 -1.88935,0.2516 9.1725028,9.3867818 0 0 1 0.0157,0.44511 9.1725028,9.3867818 0 0 1 -0.17858,1.83593 5.7191632,5.8527692 0 0 1 1.96973,-0.36918 5.7191632,5.8527692 0 0 1 5.71896,5.8528 5.7191632,5.8527692 0 0 1 -4.12492,5.61763 v 2.13928 a 7.7817172,7.9635064 0 0 0 6.27029,-7.80976 7.7817172,7.9635064 0 0 0 -7.78177,-7.96341 z"
       id="path4701-8-5-5"
       inkscape:connector-curvature="0"
       inkscape:export-xdpi="96"
       inkscape:export-ydpi="96" />
    <rect
       style="fill:#0a3a7a;fill-opacity:0.99607843;stroke-width:0.19165678"
       id="rect4943-3-2-6"
       width="2.6185131"
       height="2.8062234"
       x="54.670937"
       y="118.73033"
       inkscape:export-xdpi="96"
       inkscape:export-ydpi="96" />
    <rect
       style="fill:#6578d9;fill-opacity:0.89411765;stroke-width:0.18839283"
       id="rect9371-72-5"
       width="0.63228005"
       height="9.8585062"
       x="140.38496"
       y="3.9357939"
       ry="0"
       transform="matrix(0.69889618,0.71522313,-0.69889618,0.71522313,0,0)"
       inkscape:export-xdpi="96"
       inkscape:export-ydpi="96" />
    <path
       style="fill:#6578d9;fill-opacity:0.89411765;stroke-width:0.18836774"
       d="m 98.00029,96.05301 -15.386436,15.7459 0.492825,0.5041 15.379548,-15.738729 -0.492228,-0.503796 0.0072,-0.0075 z"
       id="rect9371-8-3-6-4"
       inkscape:connector-curvature="0"
       inkscape:export-xdpi="96"
       inkscape:export-ydpi="96" />
    <path
       style="fill:#6578d9;fill-opacity:0.89411765;stroke-width:0.18836774"
       d="m 83.106413,112.3025 -0.108465,-0.62972 -4.247257,0.76623 0.108476,0.62973 z"
       id="rect9371-0-5-8-46-2"
       inkscape:connector-curvature="0"
       inkscape:export-xdpi="96"
       inkscape:export-ydpi="96" />
    <ellipse
       style="fill:#f2e22c;fill-opacity:1;stroke-width:0.07837158"
       id="path6538-2-5-9-8-7-69-2-7-6-5-8-6"
       cx="78.525398"
       cy="112.8922"
       rx="0.5638479"
       ry="0.57702005"
       inkscape:export-xdpi="96"
       inkscape:export-ydpi="96" />
    <rect
       style="fill:#6578d9;fill-opacity:0.89411765;stroke-width:0.19213858"
       id="rect9371-3-9-0-4-0"
       width="0.64485145"
       height="10.054518"
       x="135.17612"
       y="4.4803157"
       ry="0"
       transform="matrix(0.68527165,0.72828755,-0.68527165,0.72828755,0,0)"
       inkscape:export-xdpi="96"
       inkscape:export-ydpi="96" />
    <path
       style="fill:#6578d9;fill-opacity:0.89411765;stroke-width:0.18836774"
       d="m 83.113335,109.50118 -0.108471,-0.62972 -4.247245,0.76624 0.10847,0.62974 z"
       id="rect9371-0-5-8-46-8-8"
       inkscape:connector-curvature="0"
       inkscape:export-xdpi="96"
       inkscape:export-ydpi="96" />
    <ellipse
       style="fill:#f2e22c;fill-opacity:1;stroke-width:0.07837158"
       id="path6538-2-5-9-8-7-69-2-7-6-5-49-1-7-6"
       cx="78.594307"
       cy="110.01234"
       rx="0.5638479"
       ry="0.57702005"
       inkscape:export-xdpi="96"
       inkscape:export-ydpi="96" />
    <ellipse
       style="fill:#f2e22c;fill-opacity:1;stroke-width:0.07837158"
       id="path6538-2-5-9-8-7-69-2-7-6-5-49-1-5-8"
       cx="89.8284"
       cy="101.88778"
       rx="0.5638479"
       ry="0.57702005"
       inkscape:export-xdpi="96"
       inkscape:export-ydpi="96" />
    <ellipse
       style="fill:#000000;fill-opacity:0;stroke-width:0.18836774"
       id="path5451-6"
       cx="73.012817"
       cy="108.43279"
       rx="1.1840281"
       ry="1.2116885"
       inkscape:export-xdpi="96"
       inkscape:export-ydpi="96" />
    <ellipse
       style="fill:#0a3a7a;fill-opacity:0.99607843;stroke-width:0.18836774"
       id="path5476-6-2"
       cx="78.585068"
       cy="109.99603"
       rx="0.65702516"
       ry="0.67237395"
       inkscape:export-xdpi="96"
       inkscape:export-ydpi="96" />
    <ellipse
       style="fill:#f2e22c;fill-opacity:1;stroke-width:0.18836774"
       id="path5495-4-03"
       cx="78.583092"
       cy="109.99828"
       rx="0.55255783"
       ry="0.56546617"
       inkscape:export-xdpi="96"
       inkscape:export-ydpi="96" />
    <ellipse
       style="fill:#0a3a7a;fill-opacity:0.99607843;stroke-width:0.18836774"
       id="path5476-2-93"
       cx="78.547264"
       cy="112.87062"
       rx="0.65702516"
       ry="0.67237395"
       inkscape:export-xdpi="96"
       inkscape:export-ydpi="96" />
    <ellipse
       style="fill:#f2e22c;fill-opacity:1;stroke-width:0.18836774"
       id="path5495-48-7"
       cx="78.545258"
       cy="112.87285"
       rx="0.55255783"
       ry="0.56546617"
       inkscape:export-xdpi="96"
       inkscape:export-ydpi="96" />
    <ellipse
       style="fill:#0a3a7a;fill-opacity:0.99607843;stroke-width:0.18836774"
       id="path5476-24-3-40"
       cx="89.878319"
       cy="101.95163"
       rx="0.65702516"
       ry="0.67237395"
       inkscape:export-xdpi="96"
       inkscape:export-ydpi="96" />
    <ellipse
       style="fill:#0a3a7a;fill-opacity:0.99607843;stroke-width:0.18836774"
       id="path5476-24-4-1"
       cx="78.549774"
       cy="110.00507"
       rx="0.65702516"
       ry="0.67237395"
       inkscape:export-xdpi="96"
       inkscape:export-ydpi="96" />
    <ellipse
       style="fill:#0a3a7a;fill-opacity:0.99607843;stroke-width:0.18836774"
       id="path5476-24-40-2"
       cx="78.549774"
       cy="112.85862"
       rx="0.65702516"
       ry="0.67237395"
       inkscape:export-xdpi="96"
       inkscape:export-ydpi="96" />
    <ellipse
       style="fill:#ffffff;fill-opacity:1;stroke-width:0.18836774"
       id="path5663-89"
       cx="89.884323"
       cy="101.94999"
       rx="0.44175106"
       ry="0.45207086"
       inkscape:export-xdpi="96"
       inkscape:export-ydpi="96" />
    <ellipse
       style="fill:#ffffff;fill-opacity:1;stroke-width:0.18836774"
       id="path5663-8-0"
       cx="78.540955"
       cy="112.87669"
       rx="0.44175115"
       ry="0.45207089"
       inkscape:export-xdpi="96"
       inkscape:export-ydpi="96" />
    <ellipse
       style="fill:#ffffff;fill-opacity:1;stroke-width:0.18836774"
       id="path5663-9-3"
       cx="78.567436"
       cy="110.00507"
       rx="0.44175115"
       ry="0.45207089"
       inkscape:export-xdpi="96"
       inkscape:export-ydpi="96" />
    <ellipse
       style="fill:#0a3a7a;fill-opacity:0.99607843;stroke-width:0.18836774"
       id="path5476-24-3-0-0"
       cx="98.239838"
       cy="96.237648"
       rx="0.65702516"
       ry="0.67237395"
       inkscape:export-xdpi="96"
       inkscape:export-ydpi="96" />
    <ellipse
       style="fill:#ffffff;fill-opacity:1;stroke-width:0.18836774"
       id="path5663-41-8"
       cx="98.245819"
       cy="96.236092"
       rx="0.44175115"
       ry="0.45207089"
       inkscape:export-xdpi="96"
       inkscape:export-ydpi="96" />
    <ellipse
       style="fill:#0a3a7a;fill-opacity:0.99607843;stroke-width:0.18836774"
       id="path5476-24-3-74-6"
       cx="95.784096"
       cy="103.2014"
       rx="0.65702516"
       ry="0.67237395"
       inkscape:export-xdpi="96"
       inkscape:export-ydpi="96" />
    <ellipse
       style="fill:#ffffff;fill-opacity:1;stroke-width:0.18836774"
       id="path5663-0-5"
       cx="95.7901"
       cy="103.19984"
       rx="0.44175115"
       ry="0.45207089"
       inkscape:export-xdpi="96"
       inkscape:export-ydpi="96" />
    <ellipse
       style="fill:#0a3a7a;fill-opacity:0.99607843;stroke-width:0.18836774"
       id="path5476-24-3-96-6"
       cx="88.504318"
       cy="110.65142"
       rx="0.65702516"
       ry="0.67237395"
       inkscape:export-xdpi="96"
       inkscape:export-ydpi="96" />
    <ellipse
       style="fill:#ffffff;fill-opacity:1;stroke-width:0.18836774"
       id="path5663-68-1"
       cx="88.510315"
       cy="110.64984"
       rx="0.44175115"
       ry="0.45207089"
       inkscape:export-xdpi="96"
       inkscape:export-ydpi="96" />
    <path
       d="m 53.109402,131.27825 h -2.843044 v -4.45031 c 0,-0.3622 -0.01834,-0.72174 -0.05498,-1.07861 -0.03665,-0.36221 -0.09948,-0.62854 -0.188489,-0.79898 -0.104717,-0.19709 -0.259172,-0.3409 -0.463368,-0.43145 -0.198961,-0.0905 -0.479078,-0.13583 -0.840347,-0.13583 -0.256556,0 -0.518346,0.0426 -0.785372,0.12784 -0.261187,0.0517 -0.506004,0.16621 -0.620682,0.39934 -0.147944,0.30075 -0.235375,4.72095 -0.235375,6.368 h -2.827338 v -5.97281 c 0.01281,-1.20318 0.774404,-2.24658 1.269403,-2.65964 0.427574,-0.3568 1.1663,-0.59441 2.003332,-0.58287 0.539789,-0.0122 1.981401,-0.005 2.546869,-0.005 0.952917,0 1.696403,0.2823 2.230458,0.84692 0.539287,0.56461 0.808931,1.40886 0.808931,2.53276 z"
       style="font-style:normal;font-variant:normal;font-weight:bold;font-stretch:normal;font-size:66.66666412px;line-height:1.25;font-family:sans-serif;-inkscape-font-specification:'sans-serif, Bold';font-variant-ligatures:normal;font-variant-caps:normal;font-variant-numeric:normal;font-feature-settings:normal;text-align:start;letter-spacing:-4.10984421px;word-spacing:0px;writing-mode:lr-tb;text-anchor:start;fill:#425eeb;fill-opacity:0.89411765;stroke:none;stroke-width:0.24334724"
       id="path5989-8"
       inkscape:connector-curvature="0"
       sodipodi:nodetypes="ccscccscscccscscsc"
       inkscape:export-xdpi="96"
       inkscape:export-ydpi="96" />
    <path
       d="m 57.176889,131.27825 h -2.451618 v -8.97252 l 2.526232,0.006 z"
       style="font-style:normal;font-variant:normal;font-weight:bold;font-stretch:normal;font-size:66.66666412px;line-height:1.25;font-family:sans-serif;-inkscape-font-specification:'sans-serif, Bold';font-variant-ligatures:normal;font-variant-caps:normal;font-variant-numeric:normal;font-feature-settings:normal;text-align:start;letter-spacing:-4.10984421px;word-spacing:0px;writing-mode:lr-tb;text-anchor:start;fill:#425eeb;fill-opacity:0.89411765;stroke:none;stroke-width:0.24334724"
       id="path5991-4"
       inkscape:connector-curvature="0"
       sodipodi:nodetypes="ccccc"
       inkscape:export-xdpi="96"
       inkscape:export-ydpi="96" />
    <path
       d="m 67.898915,124.8919 -0.04424,0.7915 v 1.08621 4.50864 h -2.84303 v -4.48226 c 0,-0.43678 -0.01048,-0.80698 -0.03141,-1.11058 -0.02094,-0.30894 -0.07854,-0.55929 -0.172779,-0.75104 -0.09425,-0.19176 -0.238233,-0.33025 -0.43196,-0.41547 -0.188487,-0.0905 -0.455513,-0.13583 -0.801075,-0.13583 -0.277498,0 -0.547142,0.0586 -0.808931,0.17579 -0.282151,0.10802 -0.431724,0.22655 -0.523295,0.38634 -0.109204,0.23972 -0.154556,0.45853 -0.172887,0.68613 -0.01715,0.21287 -0.01066,0.4334 -0.01066,0.68595 v 4.96097 h -2.827332 l 0.0329,-6.39773 c 0.05024,-0.9401 0.163413,-1.54243 0.403343,-1.93924 0.367269,-0.60743 1.03155,-0.76761 2.221743,-0.88616 0.507615,-0.0404 2.088626,-0.0236 2.627916,-0.0236 0.581173,0 0.996943,0.17732 1.441989,0.44365 0.445039,0.261 0.504022,0.50561 0.755346,1.01696 0.290155,-0.63459 0.753835,-1.37861 2.051237,-1.43079 0.782317,-0.0386 1.458082,-0.003 1.971183,-0.003 0.952913,0 1.675453,0.29029 2.167619,0.87088 0.497396,0.58059 0.746095,1.41685 0.746095,2.50879 v 5.84053 h -2.843031 c -0.04858,-1.44677 0.03397,-2.95773 0.01379,-4.41144 -0.0058,-0.4017 -0.01896,-0.79901 -0.04516,-1.1894 -0.01571,-0.3036 -0.07069,-0.55129 -0.164926,-0.74304 -0.08901,-0.19175 -0.230379,-0.33026 -0.4241,-0.41547 -0.193725,-0.0905 -0.465986,-0.13583 -0.816779,-0.13583 -0.23561,0 -0.448289,-0.0104 -0.69998,0.0395 -0.44086,0.0879 -0.526944,0.17958 -0.771551,0.46929 z"
       style="font-style:normal;font-variant:normal;font-weight:bold;font-stretch:normal;font-size:66.66666412px;line-height:1.25;font-family:sans-serif;-inkscape-font-specification:'sans-serif, Bold';font-variant-ligatures:normal;font-variant-caps:normal;font-variant-numeric:normal;font-feature-settings:normal;text-align:start;letter-spacing:-4.10984421px;word-spacing:0px;writing-mode:lr-tb;text-anchor:start;fill:#425eeb;fill-opacity:0.89411765;stroke:none;stroke-width:0.24334724"
       id="path5993-6"
       inkscape:connector-curvature="0"
       sodipodi:nodetypes="cccccscccsccsccccscscccscsccscccsccc"
       inkscape:export-xdpi="96"
       inkscape:export-ydpi="96" />
    <path
       d="m 84.471078,126.66816 c 0,1.41152 -0.384836,2.56205 -1.15449,3.45158 -0.76443,0.88953 -1.682007,1.20172 -2.828652,1.20172 -0.492165,0 -0.829241,0.004 -1.333817,-0.0273 -0.609488,-0.0143 0,0 -1.178057,-0.0161 H 75.266546 V 118.8461 h 2.827321 v 3.91978 c 0.434572,-0.35155 0.744267,-0.50635 1.265331,-0.61876 0.508612,-0.10358 1.041051,-0.0891 1.632688,-0.0891 1.115229,0 1.973903,0.41014 2.576011,1.23043 0.602124,0.81494 0.903181,1.94151 0.903181,3.37967 z m -2.913725,0.0559 c 0,-0.79899 -0.13351,-1.41419 -0.400535,-1.84565 -0.267031,-0.43144 -0.743496,-0.64716 -1.429382,-0.64716 -0.267026,0 -0.541901,0.0426 -0.824637,0.12783 -0.282731,0.0799 -0.552371,0.19709 -0.808932,0.35155 v 4.50624 c 0.204187,0.0746 0.397915,0.12518 0.581173,0.1518 0.183257,0.0266 0.403161,0.04 0.65971,0.04 0.748726,0 1.306337,-0.22371 1.672847,-0.67113 0.366504,-0.44743 0.549756,-1.11857 0.549756,-2.01343 z"
       style="font-style:normal;font-variant:normal;font-weight:bold;font-stretch:normal;font-size:66.66666412px;line-height:1.25;font-family:sans-serif;-inkscape-font-specification:'sans-serif, Bold';font-variant-ligatures:normal;font-variant-caps:normal;font-variant-numeric:normal;font-feature-settings:normal;text-align:start;letter-spacing:-4.10984421px;word-spacing:0px;writing-mode:lr-tb;text-anchor:start;fill:#425eeb;fill-opacity:0.89411765;stroke:none;stroke-width:0.24334724"
       id="path5995-4"
       inkscape:connector-curvature="0"
       sodipodi:nodetypes="scscccccccscssssccccscs"
       inkscape:export-xdpi="96"
       inkscape:export-ydpi="96" />
    <path
       d="m 91.186686,131.53225 c -0.655797,0.04 -2.094409,-0.006 -2.696528,-0.006 -0.973858,0 -1.725198,-0.28496 -2.254008,-0.8549 -0.52358,-0.56994 -0.785365,-1.41154 -0.785365,-2.52477 v -5.84054 h 2.843025 v 4.45031 c 0,0.45276 0.0131,0.83093 0.03931,1.13454 0.03142,0.29829 0.09947,0.54598 0.204193,0.74305 0.09948,0.19709 0.2487,0.34091 0.447663,0.43146 0.204192,0.0905 0.486935,0.13582 0.848204,0.13582 0.240844,0 0.507875,-0.0453 0.801076,-0.13582 0.657554,-0.23978 0.66447,-0.61123 0.783359,-1.25874 l 0.06486,-0.95205 v -4.54857 h 2.827331 c 0.06364,3.31416 0.294986,6.46179 -0.355454,7.73934 -0.554702,1.0895 -1.270149,1.49391 -2.767617,1.48718 z"
       style="font-style:normal;font-variant:normal;font-weight:bold;font-stretch:normal;font-size:66.66666412px;line-height:1.25;font-family:sans-serif;-inkscape-font-specification:'sans-serif, Bold';font-variant-ligatures:normal;font-variant-caps:normal;font-variant-numeric:normal;font-feature-settings:normal;text-align:start;letter-spacing:-4.10984421px;word-spacing:0px;writing-mode:lr-tb;text-anchor:start;fill:#425eeb;fill-opacity:0.89411765;stroke:none;stroke-width:0.24334724"
       id="path5997-9"
       inkscape:connector-curvature="0"
       sodipodi:nodetypes="cscsccscccscccccsc"
       inkscape:export-xdpi="96"
       inkscape:export-ydpi="96" />
    <path
       d="m 103.66154,128.4339 c 0,0.92681 -0.4084,1.67518 -1.22518,2.24512 -0.81679,0.56461 -1.93464,0.84692 -3.353533,0.84692 -0.785371,0 -1.49745,-0.0745 -2.136221,-0.22371 -0.638764,-0.14915 -1.151869,-0.31427 -1.539325,-0.49538 v -2.36497 h 0.259176 c 0.141359,0.10121 0.303677,0.21307 0.486929,0.33556 0.188498,0.1172 0.452898,0.24503 0.79322,0.38353 0.293213,0.1225 0.62568,0.22903 0.997431,0.31959 0.371733,0.0852 0.76966,0.12783 1.193767,0.12783 0.554986,0 0.966006,-0.0613 1.233026,-0.18376 0.26703,-0.12784 0.40053,-0.31427 0.40053,-0.55928 0,-0.2184 -0.0785,-0.37553 -0.23561,-0.4714 -0.15706,-0.10121 -0.4555,-0.19709 -0.895311,-0.28763 -0.209428,-0.048 -0.494785,-0.0985 -0.85606,-0.15181 -0.356028,-0.0586 -0.680645,-0.12784 -0.973858,-0.20774 -0.801076,-0.21307 -1.395339,-0.5433 -1.782795,-0.99073 -0.387451,-0.45276 -0.581179,-1.01471 -0.581179,-1.68585 0,-0.8629 0.400535,-1.57931 1.201623,-2.14924 0.806312,-0.57527 1.905835,-0.8629 3.298555,-0.8629 0.659715,0 1.290635,0.0693 1.892755,0.20773 0.60735,0.13316 1.14525,0.32092 1.48558,0.47539 v 2.13928 c -0.58358,-0.3089 -1.23952,-0.45282 -1.74475,-0.62522 -0.53406,-0.18642 -1.07596,-0.27964 -1.625724,-0.27964 -0.455518,0 -0.840354,0.0639 -1.15449,0.19176 -0.308918,0.12783 -0.463374,0.30893 -0.463374,0.5433 0,0.21306 0.07068,0.37552 0.212048,0.48738 0.141366,0.11186 0.473839,0.22372 0.997419,0.33557 0.287978,0.0586 0.596891,0.11719 0.926741,0.17578 0.33509,0.0532 0.67019,0.12251 1.00528,0.20773 0.74349,0.19708 1.29324,0.50868 1.64927,0.93481 0.35604,0.4208 0.53406,0.94811 0.53406,1.58198 z"
       style="font-style:normal;font-variant:normal;font-weight:bold;font-stretch:normal;font-size:66.66666412px;line-height:1.25;font-family:sans-serif;-inkscape-font-specification:'sans-serif, Bold';font-variant-ligatures:normal;font-variant-caps:normal;font-variant-numeric:normal;font-feature-settings:normal;text-align:start;letter-spacing:-4.10984421px;word-spacing:0px;writing-mode:lr-tb;text-anchor:start;fill:#425eeb;fill-opacity:0.89411765;stroke:none;stroke-width:0.24334724"
       id="path5999-3"
       inkscape:connector-curvature="0"
       sodipodi:nodetypes="scssccccccscscccccscsccccscscccccs"
       inkscape:export-xdpi="96"
       inkscape:export-ydpi="96" />
    <path
       style="fill:#6578d9;fill-opacity:0.89411765;stroke-width:0.18836774"
       d="m 87.700254,115.51175 15.540426,-15.59458 -0.48785,-0.508892 -15.533459,15.587472 0.487248,0.50859 -0.0072,0.007 z"
       id="rect9371-8-3-6-4-5"
       inkscape:connector-curvature="0"
       inkscape:export-xdpi="96"
       inkscape:export-ydpi="96" />
    <path
       style="fill:#6578d9;fill-opacity:0.89411765;stroke-width:0.18836774"
       d="m 102.75309,99.408787 0.10227,0.630753 4.25459,-0.724639 -0.10228,-0.630765 z"
       id="rect9371-0-5-8-46-2-8"
       inkscape:connector-curvature="0"
       inkscape:export-xdpi="96"
       inkscape:export-ydpi="96" />
    <ellipse
       style="fill:#f2e22c;fill-opacity:1;stroke-width:0.07837158"
       id="path6538-2-5-9-8-7-69-2-7-6-5-8-6-2"
       cx="-108.3059"
       cy="-97.809837"
       rx="0.56384778"
       ry="0.57702011"
       transform="matrix(-0.99995212,-0.00978521,0.00982469,-0.99995174,0,0)"
       inkscape:export-xdpi="96"
       inkscape:export-ydpi="96" />
    <rect
       style="fill:#6578d9;fill-opacity:0.89411765;stroke-width:0.19213858"
       id="rect9371-3-9-0-4-0-6"
       width="0.64483875"
       height="10.054716"
       x="-145.79578"
       y="-3.8562856"
       ry="0"
       transform="matrix(-0.67809684,-0.73497257,0.69238029,-0.72153277,0,0)"
       inkscape:export-xdpi="96"
       inkscape:export-ydpi="96" />
    <path
       style="fill:#6578d9;fill-opacity:0.89411765;stroke-width:0.18836774"
       d="m 102.71865,102.2099 0.10228,0.63075 4.25457,-0.72465 -0.10228,-0.63075 z"
       id="rect9371-0-5-8-46-8-8-0"
       inkscape:connector-curvature="0"
       inkscape:export-xdpi="96"
       inkscape:export-ydpi="96" />
    <ellipse
       style="fill:#f2e22c;fill-opacity:1;stroke-width:0.07837158"
       id="path6538-2-5-9-8-7-69-2-7-6-5-49-1-7-6-5"
       cx="-108.23696"
       cy="-100.68965"
       rx="0.56384778"
       ry="0.57702011"
       transform="matrix(-0.99995212,-0.00978521,0.00982469,-0.99995174,0,0)"
       inkscape:export-xdpi="96"
       inkscape:export-ydpi="96" />
    <ellipse
       style="fill:#f2e22c;fill-opacity:1;stroke-width:0.07837158"
       id="path6538-2-5-9-8-7-69-2-7-6-5-49-1-5-8-7"
       cx="-97.002861"
       cy="-108.81413"
       rx="0.56384778"
       ry="0.57702011"
       transform="matrix(-0.99995212,-0.00978521,0.00982469,-0.99995174,0,0)"
       inkscape:export-xdpi="96"
       inkscape:export-ydpi="96" />
    <ellipse
       style="fill:#0a3a7a;fill-opacity:0.99607843;stroke-width:0.18836774"
       id="path5476-6-2-7"
       cx="-108.2462"
       cy="-100.70597"
       rx="0.65702504"
       ry="0.67237407"
       transform="matrix(-0.99995212,-0.00978521,0.00982469,-0.99995174,0,0)"
       inkscape:export-xdpi="96"
       inkscape:export-ydpi="96" />
    <ellipse
       style="fill:#f2e22c;fill-opacity:1;stroke-width:0.18836774"
       id="path5495-4-03-4"
       cx="-108.24821"
       cy="-100.70373"
       rx="0.55255771"
       ry="0.56546628"
       transform="matrix(-0.99995212,-0.00978521,0.00982469,-0.99995174,0,0)"
       inkscape:export-xdpi="96"
       inkscape:export-ydpi="96" />
    <ellipse
       style="fill:#0a3a7a;fill-opacity:0.99607843;stroke-width:0.18836774"
       id="path5476-2-93-2"
       cx="-108.28404"
       cy="-97.831398"
       rx="0.65702504"
       ry="0.67237407"
       transform="matrix(-0.99995212,-0.00978521,0.00982469,-0.99995174,0,0)"
       inkscape:export-xdpi="96"
       inkscape:export-ydpi="96" />
    <ellipse
       style="fill:#f2e22c;fill-opacity:1;stroke-width:0.18836774"
       id="path5495-48-7-3"
       cx="-108.28602"
       cy="-97.829163"
       rx="0.55255771"
       ry="0.56546628"
       transform="matrix(-0.99995212,-0.00978521,0.00982469,-0.99995174,0,0)"
       inkscape:export-xdpi="96"
       inkscape:export-ydpi="96" />
    <ellipse
       style="fill:#0a3a7a;fill-opacity:0.99607843;stroke-width:0.18836774"
       id="path5476-24-3-40-1"
       cx="-96.952965"
       cy="-108.75025"
       rx="0.65702504"
       ry="0.67237407"
       transform="matrix(-0.99995212,-0.00978521,0.00982469,-0.99995174,0,0)"
       inkscape:export-xdpi="96"
       inkscape:export-ydpi="96" />
    <ellipse
       style="fill:#0a3a7a;fill-opacity:0.99607843;stroke-width:0.18836774"
       id="path5476-24-4-1-5"
       cx="-108.2815"
       cy="-100.69695"
       rx="0.65702504"
       ry="0.67237407"
       transform="matrix(-0.99995212,-0.00978521,0.00982469,-0.99995174,0,0)"
       inkscape:export-xdpi="96"
       inkscape:export-ydpi="96" />
    <ellipse
       style="fill:#0a3a7a;fill-opacity:0.99607843;stroke-width:0.18836774"
       id="path5476-24-40-2-7"
       cx="-108.2815"
       cy="-97.843407"
       rx="0.65702504"
       ry="0.67237407"
       transform="matrix(-0.99995212,-0.00978521,0.00982469,-0.99995174,0,0)"
       inkscape:export-xdpi="96"
       inkscape:export-ydpi="96" />
    <ellipse
       style="fill:#ffffff;fill-opacity:1;stroke-width:0.18836774"
       id="path5663-89-1"
       cx="-96.946999"
       cy="-108.75187"
       rx="0.44175097"
       ry="0.45207095"
       transform="matrix(-0.99995212,-0.00978521,0.00982469,-0.99995174,0,0)"
       inkscape:export-xdpi="96"
       inkscape:export-ydpi="96" />
    <ellipse
       style="fill:#ffffff;fill-opacity:1;stroke-width:0.18836774"
       id="path5663-8-0-2"
       cx="-108.29035"
       cy="-97.825378"
       rx="0.44175106"
       ry="0.45207098"
       transform="matrix(-0.99995212,-0.00978521,0.00982469,-0.99995174,0,0)"
       inkscape:export-xdpi="96"
       inkscape:export-ydpi="96" />
    <ellipse
       style="fill:#ffffff;fill-opacity:1;stroke-width:0.18836774"
       id="path5663-9-3-3"
       cx="-108.26385"
       cy="-100.69695"
       rx="0.44175106"
       ry="0.45207098"
       transform="matrix(-0.99995212,-0.00978521,0.00982469,-0.99995174,0,0)"
       inkscape:export-xdpi="96"
       inkscape:export-ydpi="96" />
    <ellipse
       style="fill:#0a3a7a;fill-opacity:0.99607843;stroke-width:0.18836774"
       id="path5476-24-3-0-0-5"
       cx="-88.591492"
       cy="-114.4641"
       rx="0.65702504"
       ry="0.67237407"
       transform="matrix(-0.99995212,-0.00978521,0.00982469,-0.99995174,0,0)"
       inkscape:export-xdpi="96"
       inkscape:export-ydpi="96" />
    <ellipse
       style="fill:#ffffff;fill-opacity:1;stroke-width:0.18836774"
       id="path5663-41-8-8"
       cx="-88.585503"
       cy="-114.46573"
       rx="0.44175106"
       ry="0.45207098"
       transform="matrix(-0.99995212,-0.00978521,0.00982469,-0.99995174,0,0)"
       inkscape:export-xdpi="96"
       inkscape:export-ydpi="96" />
  </g>
</svg>
